PathFileType	4	(X/Y/Z)	/Users/niels/Desktop/University/Third Semester/Perception and Action/Exam/Gymnastics Motion Tracking/Code for Gym Tracking/Analyzed Data/Webcam_Backflip/id9_2_trajectory_Sports2D/id9_2_trajectory_Sports2D_px_person00.trc
DataRate	CameraRate	NumFrames	NumMarkers	Units	OrigDataRate	OrigDataStartFrame	OrigNumFrames
29.714285714285715	29.714285714285715	12	22	m	29.714285714285715	65	105
Frame#	Time	Hip			RHip			RKnee			RAnkle			RBigToe			RSmallToe			RHeel			LHip			LKnee			LAnkle			LBigToe			LSmallToe			LHeel			Neck			Head			Nose			RShoulder			RElbow			RWrist			LShoulder			LElbow			LWrist		
		X1	Y1	Z1	X2	Y2	Z2	X3	Y3	Z3	X4	Y4	Z4	X5	Y5	Z5	X6	Y6	Z6	X7	Y7	Z7	X8	Y8	Z8	X9	Y9	Z9	X10	Y10	Z10	X11	Y11	Z11	X12	Y12	Z12	X13	Y13	Z13	X14	Y14	Z14	X15	Y15	Z15	X16	Y16	Z16	X17	Y17	Z17	X18	Y18	Z18	X19	Y19	Z19	X20	Y20	Z20	X21	Y21	Z21	X22	Y22	Z22
65	2.1875	0.8834794297181485	-0.5698464913015446	0.0	0.884046660078718	-0.573540926975177	0.0	1.0216417610890913	-0.7440880924476242	0.0	0.9360192790888493	-0.9388230287718794	0.0	1.0176707112651908	-0.9842026875350572	0.0	0.9727493605714124	-0.992434209596583	0.0	0.9110383158232408	-0.9586655973613663	0.0	0.8958024542332748	-0.5691749478893973	0.0	0.9523951532220111	-0.7970572599822083	0.0	0.911066195595284	-1.0265866510458328	0.0	1.0496024712089667	-1.0556565149363946	0.0	0.984013773188046	-1.0492121956857376	0.0	0.8910810011939302	-1.0599487002865604	0.0	0.9225039189436314	-0.2527228840029115	0.0	0.9729196176521023	-0.10890446324420211	0.0	0.9875424397283823	-0.20032740704294286	0.0	0.8897722062927761	-0.29962283731398587	0.0	0.8707802137921683	-0.47299058886918555	0.0	0.9587402029497193	-0.5929513881110997	0.0	0.9019217949362534	-0.29098465394142403	0.0	0.898704567049878	-0.45198519047279895	0.0	0.9685795437354512	-0.5582348906082286	0.0
66	2.2211538461538463	0.8707156696974416	-0.5681564886128903	0.0	0.870425599920088	-0.5706827524933461	0.0	0.965054491309021	-0.7795168298739843	0.0	0.8891729568134116	-0.9822778990503154	0.0	1.0197410783799303	-1.033265531743759	0.0	0.9495400777266482	-1.0405219302769748	0.0	0.8636283056276503	-1.005207328815665	0.0	0.8866287325304346	-0.5663648248054403	0.0	0.9275645102609157	-0.7989526835553803	0.0	0.8776835745444456	-1.0240493766697372	0.0	1.030524786557459	-1.0572468107839648	0.0	0.9420974078619327	-1.049612463139586	0.0	0.8468401399997229	-1.0575434275072253	0.0	0.9114625435159096	-0.24572076511511184	0.0	0.9591830218146692	-0.09939091297563199	0.0	0.9742933064789211	-0.19117151862909168	0.0	0.8764968529789693	-0.29212381081929945	0.0	0.8395446815713037	-0.46203465270209043	0.0	0.9023488634184827	-0.5925093763595204	0.0	0.8977241376548434	-0.28412240629191066	0.0	0.871358805607363	-0.4426599687458232	0.0	0.933707549317602	-0.5586265592599989	0.0
67	2.254807692307692	0.85637252952971	-0.5685525991443777	0.0	0.8552306877452516	-0.5695786679770634	0.0	0.9074155981195251	-0.8041797245849667	0.0	0.8410539122535104	-1.0117734458865828	0.0	1.030564403026311	-1.0585068844483623	0.0	0.9366179888316639	-1.0663766286755068	0.0	0.8160968006869253	-1.0372984347949472	0.0	0.8759482731260867	-0.5657789417953496	0.0	0.9024099320238492	-0.8033413387490242	0.0	0.848570129855223	-1.0235883325044874	0.0	1.005643488283357	-1.0591412312388329	0.0	0.907497273388692	-1.0505720026183032	0.0	0.799555518254399	-1.0555338089381157	0.0	0.8994936865361965	-0.24188565030793793	0.0	0.9450349607217463	-0.09275550487478414	0.0	0.9603347428629064	-0.1852116637202194	0.0	0.8627554957554241	-0.2877830876009491	0.0	0.8114001318846036	-0.4543582577379566	0.0	0.8457187718812468	-0.5944912624443432	0.0	0.8919583237529544	-0.28015575195188597	0.0	0.8479128608129721	-0.43589664654878346	0.0	0.9051951393852541	-0.5557950965106391	0.0
68	2.2884615384615383	0.840115466448503	-0.5709483169933701	0.0	0.8374523281148849	-0.5703596168799732	0.0	0.8511235498668105	-0.8195979823697936	0.0	0.7878072429135381	-1.0294401782777236	0.0	1.0330350694812453	-1.066533256668487	0.0	0.9286272793848326	-1.0763590337459272	0.0	0.7634188537461628	-1.055690230363636	0.0	0.8632686715755931	-0.5674611597508483	0.0	0.87986997456914	-0.8092692985189901	0.0	0.8340108963979797	-1.0252264469603383	0.0	0.9813696073978303	-1.059860292882207	0.0	0.8926952260487789	-1.0508021252736002	0.0	0.7618157124148928	-1.0546724022897402	0.0	0.8864220403063188	-0.24109788905623802	0.0	0.9302517675254803	-0.0892211908215078	0.0	0.9455857053490229	-0.18237740132246297	0.0	0.847448581256328	-0.2868297514893398	0.0	0.7860965946272089	-0.4512419910053112	0.0	0.7915939975860378	-0.599593845846062	0.0	0.8843475948854581	-0.2794191291265704	0.0	0.8297184911692637	-0.432642554615856	0.0	0.8835279274390874	-0.551578736108037	0.0
69	2.3221153846153846	0.8223100593507751	-0.5750471890367024	0.0	0.8164530160251278	-0.5729073475141261	0.0	0.7964563705880329	-0.828573308348848	0.0	0.729962285806539	-1.038898583165997	0.0	1.0129779961574226	-1.0650124344384506	0.0	0.9170682259738651	-1.0772946541042068	0.0	0.705667251748475	-1.0641424748709531	0.0	0.8492314138495108	-0.5711745579963845	0.0	0.8640924560158393	-0.8153708791416534	0.0	0.8394491586316147	-1.0281560461910415	0.0	0.96953043029206	-1.0583094838080573	0.0	0.9029430793483298	-1.0492118428296875	0.0	0.7465411190974439	-1.0553394351323102	0.0	0.8720002995358141	-0.2425124833780476	0.0	0.9145374575032429	-0.0883700592952583	0.0	0.9298017797503599	-0.18199020674770028	0.0	0.8291599773664063	-0.2886097269514147	0.0	0.762543883416522	-0.4527165532504616	0.0	0.7422303833732454	-0.6070055929897108	0.0	0.8753517469744889	-0.2817340715757329	0.0	0.8170303445466948	-0.4331167184569734	0.0	0.8669984847574598	-0.5482303758578219	0.0
70	2.355769230769231	0.8037776231446572	-0.5802431150807109	0.0	0.7922641672017282	-0.5767843661706116	0.0	0.7445398680565611	-0.8338936763037577	0.0	0.671851311262793	-1.0438494113058405	0.0	0.9625597180988575	-1.0607781017682014	0.0	0.8866719669572202	-1.074847820694634	0.0	0.6473767872962614	-1.067064508775757	0.0	0.8348371122965069	-0.5763946539674094	0.0	0.8569350461952894	-0.8204288900013068	0.0	0.86188204742358	-1.031370543198814	0.0	0.9768543625744912	-1.0542232671670115	0.0	0.933349427974691	-1.04540402358363	0.0	0.762044677102111	-1.0574162308327242	0.0	0.856101651491918	-0.24479007788481771	0.0	0.8975795295635931	-0.08921335507625387	0.0	0.9126334682477815	-0.18289169553827417	0.0	0.8070018241569455	-0.2917084385036333	0.0	0.7392095745087148	-0.45737474411266166	0.0	0.6991065823869893	-0.6151519135888651	0.0	0.8657317670040715	-0.2863660215705458	0.0	0.8095409117263318	-0.43693282123466803	0.0	0.8536366754094847	-0.5481727541669337	0.0
71	2.3894230769230766	0.7853827611786769	-0.585449708129112	0.0	0.7658082772367025	-0.5811079592039228	0.0	0.699167279475095	-0.8374301584383794	0.0	0.6216486337693714	-1.0469527605848545	0.0	0.8837632886104876	-1.0584394917745568	0.0	0.8273098202110961	-1.0728207915220107	0.0	0.597336640572951	-1.067789442631913	0.0	0.8208079376162102	-0.5821727994476038	0.0	0.855567028922606	-0.8235736102302892	0.0	0.8902426366255224	-1.0339476273248311	0.0	0.9964681391117227	-1.0482111405997716	0.0	0.9703694580823027	-1.0398205491532024	0.0	0.8027750336011445	-1.0601943807830594	0.0	0.8388111983796288	-0.24646569573430346	0.0	0.8791178095571762	-0.09039304139562379	0.0	0.8937911040312588	-0.18371268025086207	0.0	0.7811072389810112	-0.29442295726139645	0.0	0.7146345659809124	-0.4628709250570523	0.0	0.6629381493735979	-0.6223915164248521	0.0	0.8562491820945602	-0.2920733518147107	0.0	0.8067995459432578	-0.443013284851962	0.0	0.8428823342937067	-0.5525956712322869	0.0
72	2.423076923076923	0.7676846169409939	-0.5893267398293515	0.0	0.7386934065435462	-0.5847520832487801	0.0	0.6639717017501873	-0.8399330580353752	0.0	0.5863123082869461	-1.049604340917044	0.0	0.7915610323512267	-1.0598007465233266	0.0	0.7477756959479679	-1.0730727442188088	0.0	0.5630416626848365	-1.0682347045426392	0.0	0.8074146287930594	-0.5872409381134029	0.0	0.8553852020026689	-0.8243721748726278	0.0	0.9126456185271037	-1.035260079792799	0.0	1.015392371383084	-1.0416886594689778	0.0	1.000008300331912	-1.0337250154005224	0.0	0.8497645531496585	-1.0626456951610177	0.0	0.8204013632654422	-0.246387967108578	0.0	0.8590589820975332	-0.09055461953417179	0.0	0.8732441122101109	-0.1832616132833225	0.0	0.7525018032104046	-0.2953715138701338	0.0	0.6880397341295914	-0.4669092085191936	0.0	0.633772032298979	-0.6274489030280732	0.0	0.8473808381142016	-0.2973809660363679	0.0	0.807904120496673	-0.4497139166359023	0.0	0.8355178779122959	-0.560548938396678	0.0
73	2.456730769230769	0.7509087152091045	-0.5909313401045965	0.0	0.7127034983142551	-0.5868707888139381	0.0	0.6393277458726929	-0.8415204479525175	0.0	0.5664730872637106	-1.0522767754916995	0.0	0.7075464507698248	-1.0642113711066477	0.0	0.6697475937845246	-1.075613343372043	0.0	0.5452801798467937	-1.0691747732526846	0.0	0.7946721162569408	-0.5905577354366368	0.0	0.8537418167502248	-0.8229603721910246	0.0	0.9231817438102138	-1.035270155824828	0.0	1.0251870853131022	-1.0366736374623309	0.0	1.0153360647033902	-1.0289691671970027	0.0	0.8850571948652338	-1.0640472401862338	0.0	0.8012859997381843	-0.24402621339456265	0.0	0.8375612771215815	-0.08875766410318899	0.0	0.8513038272374057	-0.18081413416161757	0.0	0.7227235372740456	-0.29384713093944476	0.0	0.6597189977907315	-0.46809082838776345	0.0	0.6109740369960129	-0.6295714376562097	0.0	0.8391548575441994	-0.30103230182612234	0.0	0.8112401825425534	-0.4554172236087759	0.0	0.8323434291053404	-0.5697729275230516	0.0
74	2.4903846153846154	0.7352054884696321	-0.5901636778638688	0.0	0.6893295074400878	-0.5872431746703987	0.0	0.6229255993216918	-0.8422542611740979	0.0	0.5582195883206991	-1.05496846389721	0.0	0.6462453473278161	-1.0698522002411917	0.0	0.6100409490629389	-1.0792480686172323	0.0	0.540018132798343	-1.0707026071441692	0.0	0.782632018981134	-0.591740500442518	0.0	0.8501519273278159	-0.8200068066116334	0.0	0.9212719900296606	-1.0344564569232457	0.0	1.022994284944223	-1.0351961463984103	0.0	1.0155629013581904	-1.027369212244631	0.0	0.900916120149083	-1.0642747348282249	0.0	0.7819820354376594	-0.23950507486442463	0.0	0.8150110295746232	-0.08470436277972744	0.0	0.828537309630178	-0.17615552252484729	0.0	0.6934505363177167	-0.2898441958050002	0.0	0.630962726231922	-0.46616729740134255	0.0	0.5933430940734851	-0.6284805560707813	0.0	0.8313118273832363	-0.30234103258831496	0.0	0.8150144971636276	-0.4591406586363376	0.0	0.8332305123664633	-0.5782315964800707	0.0
75	2.5240384615384612	0.7208546940895715	-0.5876418236875728	0.0	0.6694240608784082	-0.5861990291245279	0.0	0.6117505381563698	-0.8423986934984561	0.0	0.5568405960862518	-1.05754014393505	0.0	0.6095951740665315	-1.075295583665096	0.0	0.5727373650908044	-1.0828316272257883	0.0	0.5422539324137005	-1.0726328553323992	0.0	0.771499942176096	-0.5910103445233607	0.0	0.8449138376251313	-0.8164733144237007	0.0	0.9085400321499144	-1.033445022013542	0.0	1.0087273190157233	-1.0383686200653666	0.0	1.0023563451401056	-1.029851233378156	0.0	0.8975704621268972	-1.0635803860401138	0.0	0.7630566714789614	-0.2334079733605359	0.0	0.7919698806812063	-0.07870523044157662	0.0	0.8055977952915061	-0.1694701462544484	0.0	0.6661182636997441	-0.2839170955083317	0.0	0.6035216286805963	-0.46179316430329487	0.0	0.5794213691816814	-0.6243543394450746	0.0	0.8236155103766813	-0.3012711962179826	0.0	0.8180516309179814	-0.460671429499338	0.0	0.8373008915246735	-0.5847261415566377	0.0
76	2.5576923076923075	0.7081985058553785	-0.5843039160615844	0.0	0.6531154501595986	-0.5843371886338932	0.0	0.6033019480820851	-0.8423522699528697	0.0	0.5585753469162399	-1.0598685069096325	0.0	0.5922091652087679	-1.0800646975887414	0.0	0.5538365305583123	-1.0859501779009513	0.0	0.5477865467872025	-1.074690866094338	0.0	0.7615320460108997	-0.5889693929458472	0.0	0.8381538226055942	-0.8133687901399785	0.0	0.8873132502622031	-1.0326525690354391	0.0	0.9836208341288015	-1.0457053214575136	0.0	0.9781745710067512	-1.035936384944315	0.0	0.8789110760469879	-1.0622184586194239	0.0	0.7450406201280035	-0.22650127438590703	0.0	0.7691543870659533	-0.07145241968524911	0.0	0.7831395705700633	-0.16125846989704432	0.0	0.6415918075911762	-0.27696577234142783	0.0	0.5788926975439952	-0.4560876116848838	0.0	0.5677761558042917	-0.6179051936611635	0.0	0.8159715489572791	-0.2982852846152395	0.0	0.8199931149634442	-0.46029998356512475	0.0	0.8434653196026649	-0.5886533554695934	0.0
